<?xml version="1.0" encoding="UTF-8"?>
<svg width="276px" height="64px" viewBox="0 0 276 64" version="1.1" xmlns="http://www.w3.org/2000/svg" xmlns:xlink="http://www.w3.org/1999/xlink">
    <title>Combined Shape</title>
    <g id="Page-1" stroke="none" stroke-width="1" fill="none" fill-rule="evenodd">
        <g id="t" fill="#F0F7FF">
            <path d="M276,0 L276,64 L0,64 L0,0 L276,0 Z M32.045,4 C27.9896667,4 24.2503333,4.77683333 20.827,6.3305 C17.4036667,7.88416667 14.4411667,9.9645 11.9395,12.5715 C9.43783333,15.1785 7.48916667,18.1936667 6.0935,21.617 C4.69783333,25.0403333 4,28.5953333 4,32.282 C4,35.916 4.6715,39.4446667 6.0145,42.868 C7.3575,46.2913333 9.24033333,49.3328333 11.663,51.9925 C14.0856667,54.6521667 17.0086667,56.7983333 20.432,58.431 C23.8553333,60.0636667 27.6473333,60.88 31.808,60.88 C35.8633333,60.88 39.6026667,60.09 43.026,58.51 C46.4493333,56.93 49.3986667,54.8365 51.874,52.2295 C54.3493333,49.6225 56.2848333,46.6073333 57.6805,43.184 C59.0761667,39.7606667 59.774,36.2056667 59.774,32.519 C59.774,28.9903333 59.1156667,25.5143333 57.799,22.091 C56.4823333,18.6676667 54.6126667,15.613 52.19,12.927 C49.7673333,10.241 46.8443333,8.08166667 43.421,6.449 C39.9976667,4.81633333 36.2056667,4 32.045,4 Z M92.124,4 C87.7,4 83.75,4.81633333 80.274,6.449 C76.798,8.08166667 73.8486667,10.2146667 71.426,12.848 C69.0033333,15.4813333 67.16,18.4701667 65.896,21.8145 C64.632,25.1588333 64,28.5163333 64,31.887 C64,35.4683333 64.6715,38.997 66.0145,42.473 C67.3575,45.949 69.2535,49.0563333 71.7025,51.795 C74.1515,54.5336667 77.0745,56.7325 80.4715,58.3915 C83.8685,60.0505 87.5946667,60.88 91.65,60.88 C93.9673333,60.88 96.3373333,60.5903333 98.76,60.011 C101.182667,59.4316667 103.473667,58.589 105.633,57.483 C107.792333,56.377 109.7015,55.0076667 111.3605,53.375 C113.0195,51.7423333 114.270333,49.899 115.113,47.845 L115.113,47.845 L104.527,41.604 C103.947667,43.026 103.184,44.2241667 102.236,45.1985 C101.288,46.1728333 100.247833,46.9628333 99.1155,47.5685 C97.9831667,48.1741667 96.7981667,48.6218333 95.5605,48.9115 C94.3228333,49.2011667 93.1246667,49.346 91.966,49.346 C89.7013333,49.346 87.6605,48.8851667 85.8435,47.9635 C84.0265,47.0418333 82.4728333,45.791 81.1825,44.211 C79.8921667,42.631 78.9046667,40.814 78.22,38.76 C77.5353333,36.706 77.193,34.573 77.193,32.361 C77.193,30.307 77.4826667,28.2793333 78.062,26.278 C78.6413333,24.2766667 79.5366667,22.486 80.748,20.906 C81.9593333,19.326 83.4866667,18.0356667 85.33,17.035 C87.1733333,16.0343333 89.3326667,15.534 91.808,15.534 C92.9666667,15.534 94.1516667,15.6525 95.363,15.8895 C96.5743333,16.1265 97.7593333,16.5478333 98.918,17.1535 C100.076667,17.7591667 101.143167,18.5491667 102.1175,19.5235 C103.091833,20.4978333 103.895,21.7223333 104.527,23.197 L104.527,23.197 L114.481,16.245 C112.585,12.611 109.7015,9.66166667 105.8305,7.397 C101.9595,5.13233333 97.3906667,4 92.124,4 Z M196.153,4.316 L184.461,4.316 L164,60.406 L177.272,60.406 L181.538,47.845 L198.997,47.845 L203.342,60.406 L216.614,60.406 L196.153,4.316 Z M232.112,4.316 L222,4.316 L222,60.406 L234.956,60.406 L234.956,28.332 L260.789,60.406 L271.217,60.406 L271.217,4.316 L258.261,4.316 L258.261,37.259 L232.112,4.316 Z M159.71,4 L121,4 L121,60.09 L160.421,60.09 L160.421,48.714 L133.956,48.714 L133.956,36.785 L156.076,36.785 L156.076,26.278 L133.956,26.278 L133.956,15.376 L159.71,15.376 L159.71,4 Z M31.887,15.534 C34.257,15.534 36.3505,15.9948333 38.1675,16.9165 C39.9845,17.8381667 41.525,19.0758333 42.789,20.6295 C44.053,22.1831667 45.001,23.9738333 45.633,26.0015 C46.265,28.0291667 46.581,30.1226667 46.581,32.282 C46.581,34.3886667 46.2781667,36.4558333 45.6725,38.4835 C45.0668333,40.5111667 44.1583333,42.3281667 42.947,43.9345 C41.7356667,45.5408333 40.2083333,46.8443333 38.365,47.845 C36.5216667,48.8456667 34.3623333,49.346 31.887,49.346 C29.517,49.346 27.4103333,48.872 25.567,47.924 C23.7236667,46.976 22.1831667,45.712 20.9455,44.132 C19.7078333,42.552 18.773,40.7481667 18.141,38.7205 C17.509,36.6928333 17.193,34.5993333 17.193,32.44 C17.193,30.3333333 17.4958333,28.2661667 18.1015,26.2385 C18.7071667,24.2108333 19.6288333,22.407 20.8665,20.827 C22.1041667,19.247 23.6315,17.9698333 25.4485,16.9955 C27.2655,16.0211667 29.4116667,15.534 31.887,15.534 Z M190.307,19.089 L196.864,38.918 L183.592,38.918 L190.307,19.089 Z" id="Combined-Shape"></path>
        </g>
    </g>
</svg>